<?xml version="1.0" encoding="UTF-8"?>
<svg id="Layer_2" data-name="Layer 2" xmlns="http://www.w3.org/2000/svg" viewBox="0 0 175.41 146.22">
  <defs>
    <style>
      .cls-1 {
        fill: #ffd7dd;
      }
    </style>
  </defs>
  <g id="Furniture">
    <path class="cls-1" d="m87.71,33.14c-29.92,0-54.26,24.34-54.26,54.25v52.33h108.51v-52.33c0-29.91-24.34-54.25-54.25-54.25Z"/>
    <g>
      <path d="m87.7,0C39.34,0,0,41.04,0,91.5c0,2.22,1.8,4.01,4.01,4.01s4.01-1.8,4.01-4.01C8.02,45.47,43.77,8.02,87.7,8.02s79.68,37.45,79.68,83.48c0,2.22,1.8,4.01,4.01,4.01s4.01-1.8,4.01-4.01C175.41,41.04,136.07,0,87.7,0Z"/>
      <path d="m87.71,26.63c-33.54,0-60.82,27.28-60.82,60.76v58.83h121.57v-58.83c0-33.48-27.28-60.76-60.76-60.76Zm52.75,111.58H34.96v-50.82c0-29.08,23.67-52.75,52.75-52.75s52.75,23.66,52.75,52.75v50.82Z"/>
    </g>
  </g>
</svg>