<?xml version="1.0" encoding="UTF-8"?>
<svg xmlns="http://www.w3.org/2000/svg" xmlns:xlink="http://www.w3.org/1999/xlink" width="40px" height="33px" viewBox="0 0 39 33" version="1.1">
<g id="surface1">
<path style=" stroke:none;fill-rule:nonzero;fill:rgb(100%,84.313725%,86.666667%);fill-opacity:1;" d="M 19.5 7.488281 C 12.847656 7.488281 7.4375 12.976562 7.4375 19.71875 L 7.4375 31.519531 L 31.5625 31.519531 L 31.5625 19.71875 C 31.5625 12.976562 26.152344 7.488281 19.5 7.488281 Z M 19.5 7.488281 "/>
<path style=" stroke:none;fill-rule:nonzero;fill:rgb(0%,0%,0%);fill-opacity:1;" d="M 19.5 0.015625 C 8.746094 0.015625 0 9.269531 0 20.648438 C 0 21.148438 0.398438 21.550781 0.890625 21.550781 C 1.382812 21.550781 1.78125 21.144531 1.78125 20.648438 C 1.78125 10.265625 9.730469 1.820312 19.5 1.820312 C 29.265625 1.820312 37.214844 10.265625 37.214844 20.648438 C 37.214844 21.148438 37.613281 21.550781 38.105469 21.550781 C 38.597656 21.550781 38.996094 21.144531 38.996094 20.648438 C 39 9.269531 30.253906 0.015625 19.5 0.015625 Z M 19.5 0.015625 "/>
<path style=" stroke:none;fill-rule:nonzero;fill:rgb(0%,0%,0%);fill-opacity:1;" d="M 19.5 6.019531 C 12.042969 6.019531 5.980469 12.171875 5.980469 19.71875 L 5.980469 32.984375 L 33.007812 32.984375 L 33.007812 19.71875 C 33.007812 12.171875 26.941406 6.019531 19.5 6.019531 Z M 31.230469 31.179688 L 7.773438 31.179688 L 7.773438 19.71875 C 7.773438 13.164062 13.035156 7.824219 19.5 7.824219 C 25.964844 7.824219 31.230469 13.160156 31.230469 19.71875 Z M 31.230469 31.179688 "/>
</g>
</svg>
