<?xml version="1.0" encoding="UTF-8"?>
<svg xmlns="http://www.w3.org/2000/svg" xmlns:xlink="http://www.w3.org/1999/xlink" width="40px" height="44px" viewBox="0 0 40 44" version="1.1">
<g id="surface1">
<path style=" stroke:none;fill-rule:nonzero;fill:rgb(100%,84.313725%,86.666667%);fill-opacity:1;" d="M 5.835938 1.476562 L 34.164062 1.476562 L 34.164062 7.847656 L 5.835938 7.847656 Z M 5.835938 1.476562 "/>
<path style=" stroke:none;fill-rule:nonzero;fill:rgb(100%,84.313725%,86.666667%);fill-opacity:1;" d="M 35.363281 14.808594 L 38.453125 14.808594 L 38.453125 35.359375 L 35.363281 35.359375 Z M 35.363281 14.808594 "/>
<path style=" stroke:none;fill-rule:nonzero;fill:rgb(100%,84.313725%,86.666667%);fill-opacity:1;" d="M 5.835938 35.34375 C 5.835938 39.300781 9.078125 42.519531 13.058594 42.519531 L 26.941406 42.519531 C 30.921875 42.519531 34.164062 39.300781 34.164062 35.34375 L 34.164062 14.808594 L 5.835938 14.808594 Z M 5.835938 35.34375 "/>
<path style=" stroke:none;fill-rule:nonzero;fill:rgb(100%,84.313725%,86.666667%);fill-opacity:1;" d="M 1.53125 14.808594 L 4.636719 14.808594 L 4.636719 35.359375 L 1.53125 35.359375 Z M 1.53125 14.808594 "/>
<path style=" stroke:none;fill-rule:nonzero;fill:rgb(0%,0%,0%);fill-opacity:1;" d="M 20.9375 13.332031 L 20.9375 9.324219 L 35.644531 9.324219 L 35.644531 0 L 4.355469 0 L 4.355469 9.324219 L 19.0625 9.324219 L 19.0625 13.335938 L 0.0664062 13.335938 L 0.0664062 36.835938 L 4.496094 36.835938 C 5.214844 40.90625 8.769531 44.003906 13.058594 44.003906 L 26.941406 44.003906 C 31.230469 44.003906 34.785156 40.910156 35.503906 36.835938 L 39.933594 36.835938 L 39.933594 13.332031 Z M 4.246094 34.96875 L 1.925781 34.96875 L 1.925781 15.199219 L 4.246094 15.199219 Z M 6.230469 7.460938 L 6.230469 1.867188 L 33.773438 1.867188 L 33.773438 7.460938 L 6.226562 7.460938 Z M 33.773438 35.339844 C 33.773438 39.085938 30.71875 42.132812 26.941406 42.132812 L 13.0625 42.132812 C 9.289062 42.132812 6.230469 39.085938 6.230469 35.339844 L 6.230469 15.199219 L 33.777344 15.199219 L 33.777344 35.34375 Z M 38.0625 34.964844 L 35.753906 34.964844 L 35.753906 15.199219 L 38.0625 15.199219 L 38.0625 34.96875 Z M 38.0625 34.964844 "/>
</g>
</svg>
