<?xml version="1.0" encoding="UTF-8"?>
<svg id="Layer_2" data-name="Layer 2" xmlns="http://www.w3.org/2000/svg" viewBox="0 0 230.82 273.07">
  <defs>
    <style>
      .cls-1 {
        fill: #f5e6c5;
      }

      .cls-2 {
        fill: #9f886f;
      }
    </style>
  </defs>
  <g id="Furniture">
    <g>
      <path class="cls-1" d="m157.03,63.53c10.48,0,20.59,2.19,30.07,6.5l.85.39.22-.91c.26-1.07.39-2.2.39-3.37v-32.28h-54.77v29.68h23.23Z"/>
      <rect class="cls-1" x="133.79" y="24.66" width="54.77" height="7.03"/>
      <path class="cls-1" d="m42.62,69.51l.22.91.85-.39c9.48-4.31,19.6-6.5,30.1-6.5h23.2v-29.68h-54.77v32.28c0,1.15.13,2.29.4,3.37Z"/>
      <rect class="cls-1" x="42.22" y="24.66" width="54.77" height="7.03"/>
      <rect class="cls-1" x="133.79" y="241.38" width="54.77" height="7.06"/>
      <path class="cls-1" d="m157.03,209.56h-23.23v29.65h54.77v-32.28c0-1.1-.12-2.21-.36-3.32l-.2-.94-.88.4c-9.48,4.31-19.61,6.5-30.1,6.5Z"/>
      <path class="cls-1" d="m42.22,206.93v32.28h54.77v-29.65h-23.2c-10.48,0-20.62-2.19-30.13-6.5l-.88-.4-.2.94c-.24,1.14-.36,2.23-.36,3.32Z"/>
      <rect class="cls-1" x="42.22" y="241.38" width="54.77" height="7.06"/>
    </g>
    <path class="cls-2" d="m44.3,72.12c-1.15.49-2.3,1.07-3.4,1.7C17.47,86.1,2.91,110.13,2.91,136.55s14.56,50.42,37.98,62.73c1.21.66,2.32,1.2,3.39,1.67,9.31,4.28,19.23,6.45,29.5,6.45h83.24c10.25,0,20.17-2.17,29.46-6.44,1.1-.48,2.22-1.03,3.4-1.67,23.43-12.31,37.99-36.34,37.99-62.74s-14.56-50.46-37.97-62.72c-1.11-.64-2.27-1.22-3.41-1.71-9.31-4.28-19.23-6.45-29.47-6.45h-83.24c-10.27,0-20.2,2.17-29.49,6.45Z"/>
    <g>
      <path d="m110.24,227.82c0-1.03-.83-1.86-1.86-1.86s-1.86.83-1.86,1.86c0,22.9-16.55,41.54-36.9,41.54s-36.9-18.63-36.9-41.54c0-1.03-.83-1.86-1.86-1.86s-1.86.83-1.86,1.86c0,24.95,18.22,45.25,40.61,45.25s40.61-20.3,40.61-45.25Z"/>
      <path d="m198.1,227.82c0,22.9-16.55,41.54-36.9,41.54s-36.9-18.63-36.9-41.54c0-1.03-.83-1.86-1.86-1.86s-1.86.83-1.86,1.86c0,24.95,18.22,45.25,40.61,45.25s40.61-20.3,40.61-45.25c0-1.03-.83-1.86-1.86-1.86s-1.86.83-1.86,1.86Z"/>
      <path d="m32.73,45.25c0-22.9,16.55-41.54,36.9-41.54s36.9,18.64,36.9,41.54c0,1.03.83,1.86,1.86,1.86s1.86-.83,1.86-1.86C110.24,20.3,92.03,0,69.63,0S29.02,20.3,29.02,45.25c0,1.03.83,1.86,1.86,1.86s1.86-.83,1.86-1.86Z"/>
      <path d="m120.58,45.25c0,1.03.83,1.86,1.86,1.86s1.86-.83,1.86-1.86c0-22.9,16.55-41.54,36.9-41.54s36.9,18.64,36.9,41.54c0,1.03.83,1.86,1.86,1.86s1.86-.83,1.86-1.86c0-24.95-18.22-45.25-40.61-45.25s-40.61,20.3-40.61,45.25Z"/>
      <path d="m191.54,32.77s-.03,0-.03-.03v-11.03h-60.65v41.05h-30.92v-29.93s.03-.03.03-.06l-.03-.03v-11.03h-60.66v44.42c0,1.67.22,3.31.65,4.86C16.23,83.27,0,108.05,0,136.55s16.23,53.25,39.93,65.55c-.43,1.55-.65,3.16-.65,4.83v44.45h60.66v-11.06l.03-.03s-.03-.03-.03-.06v-29.89h30.92v41.05h60.65v-11.06s.03-.03.03-.03c0-.03-.03-.03-.03-.03v-33.33c0-1.67-.22-3.28-.65-4.83,23.73-12.27,39.96-37.05,39.96-65.55s-16.23-53.28-39.96-65.55c.43-1.55.65-3.19.65-4.86v-33.33s.03,0,.03-.03Zm-56.97-1.86v-5.48h53.22v5.48h-53.22Zm-91.57,0v-5.48h53.22v5.48h-53.22Zm53.22,211.24v5.51h-53.22v-5.51h53.22Zm91.57,0v5.51h-53.22v-5.51h53.22ZM43,66.14v-31.5h53.22v28.13h-22.43c-10.84,0-21.16,2.35-30.42,6.57-.25-1.02-.37-2.11-.37-3.19Zm53.22,172.3h-53.22v-31.51c0-1.08.12-2.14.34-3.16,9.29,4.21,19.61,6.57,30.45,6.57h22.43v28.1Zm91.57-31.51v31.51h-53.22v-28.1h22.46c10.84,0,21.16-2.35,30.42-6.57.22,1.02.34,2.08.34,3.16Zm-1.61-134.1c1.15.49,2.26,1.05,3.35,1.67,22.3,11.68,37.58,35.13,37.58,62.05s-15.27,50.34-37.58,62.05c-1.08.59-2.2,1.15-3.35,1.64-8.89,4.09-18.74,6.38-29.15,6.38h-83.24c-10.41,0-20.29-2.29-29.18-6.38-1.15-.5-2.26-1.05-3.35-1.64-22.34-11.74-37.58-35.16-37.58-62.05s15.24-50.34,37.58-62.05c1.08-.62,2.2-1.18,3.35-1.67,8.89-4.09,18.77-6.38,29.18-6.38h83.24c10.41,0,20.26,2.29,29.15,6.38Zm1.61-38.2v31.5c0,1.08-.12,2.17-.37,3.19-9.26-4.21-19.58-6.57-30.39-6.57h-22.46v-28.13h53.22Z"/>
    </g>
  </g>
</svg>