<?xml version="1.0" encoding="UTF-8"?>
<svg id="Layer_2" data-name="Layer 2" xmlns="http://www.w3.org/2000/svg" viewBox="0 0 110.6 110.61">
  <defs>
    <style>
      .cls-1 {
        fill: #ffd7dd;
      }
    </style>
  </defs>
  <g id="Furniture">
    <path class="cls-1" d="m104.08,29.34c-6.95-13.05-18.54-22.6-32.64-26.9-5.28-1.62-10.73-2.44-16.2-2.44-9.1,0-17.82,2.19-25.92,6.51C16.31,13.46,6.76,25.05,2.43,39.17c-4.3,14.16-2.86,29.12,4.08,42.11,6.97,13.06,18.56,22.61,32.65,26.89,5.33,1.63,10.78,2.43,16.2,2.43,8.94,0,17.8-2.2,25.93-6.52,13.04-6.94,22.59-18.54,26.89-32.64,4.31-14.1,2.86-29.06-4.09-42.11Z"/>
  </g>
</svg>