<?xml version="1.0" encoding="UTF-8"?>
<svg xmlns="http://www.w3.org/2000/svg" xmlns:xlink="http://www.w3.org/1999/xlink" width="150px" height="177px" viewBox="0 0 150 177" version="1.1">
<g id="surface1">
<path style=" stroke:none;fill-rule:nonzero;fill:rgb(100%,84.313725%,86.666667%);fill-opacity:1;" d="M 102.042969 41.203125 C 108.851562 41.203125 115.425781 42.621094 121.585938 45.414062 L 122.144531 45.664062 L 122.289062 45.074219 C 122.457031 44.386719 122.542969 43.648438 122.542969 42.890625 L 122.542969 21.976562 L 86.949219 21.976562 L 86.949219 41.203125 L 102.050781 41.203125 Z M 102.042969 41.203125 "/>
<path style=" stroke:none;fill-rule:nonzero;fill:rgb(100%,84.313725%,86.666667%);fill-opacity:1;" d="M 86.949219 16.011719 L 122.542969 16.011719 L 122.542969 20.570312 L 86.949219 20.570312 Z M 86.949219 16.011719 "/>
<path style=" stroke:none;fill-rule:nonzero;fill:rgb(100%,84.313725%,86.666667%);fill-opacity:1;" d="M 27.695312 45.074219 L 27.839844 45.664062 L 28.398438 45.414062 C 34.558594 42.621094 41.136719 41.203125 47.957031 41.203125 L 63.035156 41.203125 L 63.035156 21.976562 L 27.441406 21.976562 L 27.441406 42.890625 C 27.441406 43.636719 27.523438 44.371094 27.699219 45.074219 Z M 27.695312 45.074219 "/>
<path style=" stroke:none;fill-rule:nonzero;fill:rgb(100%,84.313725%,86.666667%);fill-opacity:1;" d="M 27.433594 16.011719 L 63.027344 16.011719 L 63.027344 20.570312 L 27.433594 20.570312 Z M 27.433594 16.011719 "/>
<path style=" stroke:none;fill-rule:nonzero;fill:rgb(100%,84.313725%,86.666667%);fill-opacity:1;" d="M 86.949219 156.429688 L 122.542969 156.429688 L 122.542969 161.007812 L 86.949219 161.007812 Z M 86.949219 156.429688 "/>
<path style=" stroke:none;fill-rule:nonzero;fill:rgb(100%,84.313725%,86.666667%);fill-opacity:1;" d="M 102.042969 135.820312 L 86.945312 135.820312 L 86.945312 155.027344 L 122.535156 155.027344 L 122.535156 134.117188 C 122.535156 133.402344 122.457031 132.679688 122.304688 131.964844 L 122.175781 131.351562 L 121.609375 131.609375 C 115.449219 134.402344 108.871094 135.820312 102.050781 135.820312 Z M 102.042969 135.820312 "/>
<path style=" stroke:none;fill-rule:nonzero;fill:rgb(100%,84.313725%,86.666667%);fill-opacity:1;" d="M 27.433594 134.117188 L 27.433594 155.027344 L 63.027344 155.027344 L 63.027344 135.820312 L 47.949219 135.820312 C 41.136719 135.820312 34.550781 134.402344 28.367188 131.609375 L 27.800781 131.351562 L 27.671875 131.964844 C 27.515625 132.703125 27.433594 133.410156 27.433594 134.117188 Z M 27.433594 134.117188 "/>
<path style=" stroke:none;fill-rule:nonzero;fill:rgb(100%,84.313725%,86.666667%);fill-opacity:1;" d="M 27.433594 156.429688 L 63.027344 156.429688 L 63.027344 161.007812 L 27.433594 161.007812 Z M 27.433594 156.429688 "/>
<path style=" stroke:none;fill-rule:nonzero;fill:rgb(100%,84.313725%,86.666667%);fill-opacity:1;" d="M 28.789062 46.761719 C 28.042969 47.082031 27.292969 47.453125 26.582031 47.863281 C 11.351562 55.820312 1.894531 71.398438 1.894531 88.511719 C 1.894531 105.625 11.355469 121.179688 26.574219 129.15625 C 27.363281 129.582031 28.082031 129.933594 28.777344 130.238281 C 34.828125 133.011719 41.277344 134.417969 47.957031 134.417969 L 102.050781 134.417969 C 108.710938 134.417969 115.15625 133.011719 121.191406 130.242188 C 121.90625 129.933594 122.632812 129.574219 123.402344 129.160156 C 138.632812 121.183594 148.089844 105.613281 148.089844 88.511719 C 148.089844 71.410156 138.625 55.816406 123.414062 47.875 C 122.6875 47.457031 121.941406 47.082031 121.199219 46.769531 C 115.148438 43.996094 108.707031 42.585938 102.042969 42.585938 L 47.949219 42.585938 C 41.277344 42.585938 34.824219 43.996094 28.789062 46.761719 Z M 28.789062 46.761719 "/>
<path style=" stroke:none;fill-rule:nonzero;fill:rgb(0%,0%,0%);fill-opacity:1;" d="M 71.640625 147.648438 C 71.640625 146.980469 71.101562 146.441406 70.433594 146.441406 C 69.761719 146.441406 69.222656 146.980469 69.222656 147.648438 C 69.222656 162.488281 58.46875 174.558594 45.246094 174.558594 C 32.023438 174.558594 21.269531 162.484375 21.269531 147.648438 C 21.269531 146.980469 20.726562 146.441406 20.058594 146.441406 C 19.390625 146.441406 18.851562 146.980469 18.851562 147.648438 C 18.851562 163.8125 30.691406 176.96875 45.246094 176.96875 C 59.800781 176.96875 71.640625 163.816406 71.640625 147.648438 Z M 71.640625 147.648438 "/>
<path style=" stroke:none;fill-rule:nonzero;fill:rgb(0%,0%,0%);fill-opacity:1;" d="M 128.730469 147.648438 C 128.730469 162.488281 117.976562 174.558594 104.753906 174.558594 C 91.53125 174.558594 80.777344 162.484375 80.777344 147.648438 C 80.777344 146.980469 80.238281 146.441406 79.566406 146.441406 C 78.898438 146.441406 78.359375 146.980469 78.359375 147.648438 C 78.359375 163.8125 90.199219 176.96875 104.753906 176.96875 C 119.308594 176.96875 131.148438 163.816406 131.148438 147.648438 C 131.148438 146.980469 130.609375 146.441406 129.941406 146.441406 C 129.273438 146.441406 128.730469 146.980469 128.730469 147.648438 Z M 128.730469 147.648438 "/>
<path style=" stroke:none;fill-rule:nonzero;fill:rgb(0%,0%,0%);fill-opacity:1;" d="M 21.269531 29.359375 C 21.269531 14.523438 32.023438 2.441406 45.246094 2.441406 C 58.46875 2.441406 69.222656 14.515625 69.222656 29.359375 C 69.222656 30.027344 69.761719 30.5625 70.433594 30.5625 C 71.101562 30.5625 71.640625 30.027344 71.640625 29.359375 C 71.640625 13.1875 59.800781 0.0390625 45.25 0.0390625 C 30.703125 0.0390625 18.855469 13.1875 18.855469 29.359375 C 18.855469 30.027344 19.394531 30.5625 20.066406 30.5625 C 20.734375 30.5625 21.273438 30.027344 21.273438 29.359375 Z M 21.269531 29.359375 "/>
<path style=" stroke:none;fill-rule:nonzero;fill:rgb(0%,0%,0%);fill-opacity:1;" d="M 78.359375 29.359375 C 78.359375 30.027344 78.898438 30.5625 79.566406 30.5625 C 80.238281 30.5625 80.777344 30.027344 80.777344 29.359375 C 80.777344 14.523438 91.53125 2.441406 104.753906 2.441406 C 117.976562 2.441406 128.730469 14.515625 128.730469 29.359375 C 128.730469 30.027344 129.273438 30.5625 129.941406 30.5625 C 130.609375 30.5625 131.148438 30.027344 131.148438 29.359375 C 131.148438 13.1875 119.308594 0.0390625 104.753906 0.0390625 C 90.199219 0.0390625 78.359375 13.1875 78.359375 29.359375 Z M 78.359375 29.359375 "/>
<path style=" stroke:none;fill-rule:nonzero;fill:rgb(0%,0%,0%);fill-opacity:1;" d="M 124.46875 21.269531 C 124.46875 21.269531 124.449219 21.269531 124.449219 21.25 L 124.449219 14.101562 L 85.03125 14.101562 L 85.03125 40.699219 L 64.941406 40.699219 L 64.941406 21.308594 C 64.941406 21.308594 64.957031 21.289062 64.957031 21.269531 L 64.941406 21.25 L 64.941406 14.101562 L 25.53125 14.101562 L 25.53125 42.882812 C 25.53125 43.964844 25.671875 45.03125 25.949219 46.035156 C 10.546875 53.988281 0 70.046875 0 88.511719 C 0 106.976562 10.546875 123.011719 25.949219 130.980469 C 25.671875 131.984375 25.53125 133.027344 25.53125 134.117188 L 25.53125 162.921875 L 64.945312 162.921875 L 64.945312 155.757812 L 64.960938 155.734375 C 64.960938 155.734375 64.945312 155.71875 64.945312 155.695312 L 64.945312 136.328125 L 85.039062 136.328125 L 85.039062 162.925781 L 124.453125 162.925781 L 124.453125 155.761719 C 124.453125 155.761719 124.476562 155.742188 124.476562 155.742188 C 124.476562 155.722656 124.453125 155.722656 124.453125 155.722656 L 124.453125 134.125 C 124.453125 133.046875 124.3125 131.996094 124.03125 130.992188 C 139.453125 123.046875 150 106.984375 150 88.523438 C 150 70.058594 139.453125 54 124.03125 46.050781 C 124.3125 45.046875 124.453125 43.984375 124.453125 42.902344 L 124.453125 21.304688 C 124.453125 21.304688 124.476562 21.304688 124.476562 21.289062 Z M 87.449219 20.066406 L 87.449219 16.511719 L 122.035156 16.511719 L 122.035156 20.066406 Z M 27.941406 20.066406 L 27.941406 16.511719 L 62.527344 16.511719 L 62.527344 20.066406 Z M 62.527344 156.933594 L 62.527344 160.503906 L 27.941406 160.503906 L 27.941406 156.933594 Z M 122.035156 156.933594 L 122.035156 160.503906 L 87.449219 160.503906 L 87.449219 156.933594 Z M 27.941406 42.890625 L 27.941406 22.476562 L 62.527344 22.476562 L 62.527344 40.699219 L 47.949219 40.699219 C 40.90625 40.699219 34.199219 42.222656 28.183594 44.953125 C 28.019531 44.292969 27.941406 43.585938 27.941406 42.882812 Z M 62.527344 154.53125 L 27.941406 154.53125 L 27.941406 134.117188 C 27.941406 133.414062 28.019531 132.730469 28.167969 132.070312 C 34.203125 134.800781 40.910156 136.324219 47.957031 136.324219 L 62.535156 136.324219 L 62.535156 154.53125 Z M 122.035156 134.117188 L 122.035156 154.53125 L 87.449219 154.53125 L 87.449219 136.324219 L 102.042969 136.324219 C 109.089844 136.324219 115.796875 134.800781 121.8125 132.070312 C 121.953125 132.730469 122.03125 133.414062 122.03125 134.117188 Z M 120.992188 47.226562 C 121.738281 47.546875 122.457031 47.914062 123.167969 48.308594 C 137.660156 55.878906 147.582031 71.074219 147.582031 88.511719 C 147.582031 105.949219 137.660156 121.128906 123.167969 128.710938 C 122.464844 129.09375 121.738281 129.457031 120.992188 129.777344 C 115.210938 132.429688 108.8125 133.914062 102.042969 133.914062 L 47.949219 133.914062 C 41.1875 133.914062 34.765625 132.429688 28.988281 129.777344 C 28.246094 129.457031 27.519531 129.09375 26.8125 128.710938 C 12.296875 121.105469 2.394531 105.933594 2.394531 88.511719 C 2.394531 71.089844 12.300781 55.894531 26.8125 48.308594 C 27.515625 47.90625 28.238281 47.546875 28.988281 47.226562 C 34.765625 44.578125 41.1875 43.09375 47.949219 43.09375 L 102.042969 43.09375 C 108.808594 43.09375 115.210938 44.578125 120.992188 47.226562 Z M 122.035156 22.480469 L 122.035156 42.894531 C 122.035156 43.597656 121.957031 44.300781 121.792969 44.964844 C 115.773438 42.234375 109.070312 40.710938 102.042969 40.710938 L 87.449219 40.710938 L 87.449219 22.488281 L 122.035156 22.488281 Z M 122.035156 22.480469 "/>
</g>
</svg>
