<?xml version="1.0" encoding="UTF-8"?>
<svg xmlns="http://www.w3.org/2000/svg" xmlns:xlink="http://www.w3.org/1999/xlink" width="150px" height="433px" viewBox="0 0 150 433" version="1.1">
<g id="surface1">
<path style=" stroke:none;fill-rule:nonzero;fill:rgb(62.352941%,53.333333%,43.529412%);fill-opacity:1;" d="M 120.828125 191.085938 C 114.300781 178.847656 103.414062 169.894531 90.179688 165.863281 C 85.214844 164.34375 80.101562 163.574219 74.96875 163.574219 C 66.421875 163.574219 58.238281 165.636719 50.625 169.6875 C 38.402344 176.203125 29.433594 187.074219 25.363281 200.3125 C 21.324219 213.589844 22.679688 227.617188 29.195312 239.800781 C 35.742188 252.046875 46.628906 261 59.855469 265.023438 C 64.859375 266.550781 69.972656 267.308594 75.066406 267.308594 C 83.457031 267.308594 91.785156 265.25 99.417969 261.195312 C 111.664062 254.683594 120.644531 243.808594 124.671875 230.585938 C 128.71875 217.363281 127.351562 203.335938 120.828125 191.097656 Z M 120.828125 191.085938 "/>
<path style=" stroke:none;fill-rule:nonzero;fill:rgb(0%,0%,0%);fill-opacity:1;" d="M 91.101562 162.804688 C 77.042969 158.546875 62.113281 159.957031 49.128906 166.871094 C 36.109375 173.785156 26.589844 185.339844 22.289062 199.378906 C 18.023438 213.449219 19.464844 228.320312 26.359375 241.316406 C 33.289062 254.28125 44.859375 263.777344 58.921875 268.078125 C 64.273438 269.695312 69.679688 270.464844 75 270.464844 C 86.800781 270.464844 98.167969 266.636719 107.527344 259.851562 C 116.84375 253.101562 124.105469 243.367188 127.742188 231.507812 C 136.625 202.457031 120.175781 171.671875 91.113281 162.804688 Z M 123.855469 230.335938 C 115.648438 257.230469 87.0625 272.449219 60.09375 264.222656 C 47.042969 260.265625 36.347656 251.429688 29.921875 239.410156 C 23.496094 227.386719 22.191406 213.589844 26.15625 200.558594 C 30.160156 187.53125 38.964844 176.855469 51.007812 170.4375 C 58.507812 166.4375 66.671875 164.421875 74.957031 164.421875 C 79.972656 164.421875 84.976562 165.160156 89.929688 166.675781 C 116.863281 174.871094 132.109375 203.445312 123.867188 230.335938 Z M 123.855469 230.335938 "/>
<path style=" stroke:none;fill-rule:nonzero;fill:rgb(96.078431%,90.196078%,77.254902%);fill-opacity:1;" d="M 17.457031 100.089844 L 12.496094 100.089844 L 12.527344 100.957031 C 13.332031 122.113281 30.832031 139.339844 51.539062 139.339844 L 98.992188 139.339844 C 119.046875 139.339844 136.667969 121.757812 137.472656 100.957031 L 137.503906 100.089844 L 132.507812 100.089844 L 132.457031 100.878906 C 131.273438 119.644531 115.5625 134.351562 96.660156 134.351562 L 53.339844 134.351562 C 34.125 134.351562 18.71875 119.96875 17.480469 100.878906 L 17.425781 100.089844 Z M 17.457031 100.089844 "/>
<path style=" stroke:none;fill-rule:nonzero;fill:rgb(96.078431%,90.196078%,77.254902%);fill-opacity:1;" d="M 117.601562 50.117188 L 117.601562 39.3125 C 117.601562 35.929688 114.84375 33.164062 111.445312 33.164062 L 84.011719 33.164062 L 86.203125 34.695312 C 96.117188 41.597656 106.3125 46.671875 116.507812 49.78125 L 117.59375 50.117188 Z M 117.601562 50.117188 "/>
<path style=" stroke:none;fill-rule:nonzero;fill:rgb(96.078431%,90.196078%,77.254902%);fill-opacity:1;" d="M 64.835938 50.972656 L 65.328125 53.652344 L 66.433594 51.167969 C 68.910156 45.578125 70.984375 39.550781 72.265625 34.207031 L 72.515625 33.164062 L 38.554688 33.164062 C 35.164062 33.164062 32.398438 35.917969 32.398438 39.3125 L 32.398438 51.222656 L 33.386719 51.050781 C 44.914062 48.980469 54.925781 45.035156 63.144531 39.332031 L 64.164062 38.640625 L 64.023438 39.84375 C 63.6875 42.433594 63.96875 46.292969 64.835938 50.984375 Z M 64.835938 50.972656 "/>
<path style=" stroke:none;fill-rule:nonzero;fill:rgb(96.078431%,90.196078%,77.254902%);fill-opacity:1;" d="M 31.777344 93.019531 C 30.269531 97.25 26.242188 100.089844 21.734375 100.089844 L 18.554688 100.089844 L 18.621094 100.988281 C 19.902344 119.371094 34.839844 133.234375 53.363281 133.234375 L 96.679688 133.234375 C 115.128906 133.234375 130.035156 119.371094 131.359375 100.988281 L 131.421875 100.089844 L 128.265625 100.089844 C 122.378906 100.089844 117.601562 95.320312 117.601562 89.445312 L 117.601562 65.757812 L 116.050781 68.296875 C 110.457031 77.367188 103.859375 90.886719 102.078125 101.59375 L 101.828125 102.992188 L 101.046875 101.8125 C 93.359375 90.332031 79.300781 83.242188 68.867188 79.332031 L 68.550781 79.277344 C 52.265625 78.972656 35.414062 89.757812 33.710938 91.210938 L 31.863281 92.824219 L 31.789062 93.03125 Z M 31.777344 93.019531 "/>
<path style=" stroke:none;fill-rule:nonzero;fill:rgb(96.078431%,90.196078%,77.254902%);fill-opacity:1;" d="M 138.113281 2.804688 L 11.886719 2.804688 C 6.644531 2.804688 2.378906 7.085938 2.378906 12.34375 L 2.378906 89.433594 C 2.378906 94.691406 6.667969 98.972656 11.933594 98.972656 L 21.757812 98.972656 C 27.023438 98.972656 31.3125 94.691406 31.3125 89.433594 L 31.3125 75.570312 L 31.277344 75.332031 C 28.761719 66.972656 24.082031 57.597656 20.398438 53.523438 L 19.609375 52.65625 L 20.769531 52.566406 C 24.339844 52.320312 27.640625 51.960938 30.59375 51.515625 L 31.3125 51.40625 L 31.3125 37.988281 C 31.3125 34.703125 33.980469 32.046875 37.261719 32.046875 L 72.773438 32.046875 L 72.90625 31.367188 C 73.253906 29.492188 73.480469 27.660156 73.554688 26.03125 L 73.597656 24.863281 L 74.488281 25.632812 C 76.964844 27.757812 79.539062 29.804688 82.339844 31.875 L 82.566406 32.039062 L 112.78125 32.039062 C 116.070312 32.039062 118.730469 34.703125 118.730469 37.976562 L 118.730469 50.378906 L 119.351562 50.539062 C 122.367188 51.363281 125.074219 51.960938 127.613281 52.371094 L 128.851562 52.566406 L 127.894531 53.335938 C 125.375 55.355469 122.261719 59.007812 118.882812 63.894531 L 118.730469 64.113281 L 118.730469 89.421875 C 118.730469 94.679688 123.019531 98.960938 128.285156 98.960938 L 138.113281 98.960938 C 143.378906 98.960938 147.664062 94.679688 147.664062 89.421875 L 147.664062 12.34375 C 147.664062 7.085938 143.398438 2.804688 138.144531 2.804688 Z M 138.113281 2.804688 "/>
<path style=" stroke:none;fill-rule:nonzero;fill:rgb(96.078431%,90.196078%,77.254902%);fill-opacity:1;" d="M 17.492188 332.910156 L 17.542969 332.121094 C 18.726562 313.355469 34.4375 298.648438 53.339844 298.648438 L 96.660156 298.648438 C 115.875 298.648438 131.28125 313.03125 132.519531 332.121094 L 132.574219 332.910156 L 137.535156 332.910156 L 137.503906 332.042969 C 136.699219 310.886719 119.199219 293.660156 98.496094 293.660156 L 51.039062 293.660156 C 30.984375 293.660156 13.363281 311.242188 12.5625 332.042969 L 12.527344 332.910156 L 17.523438 332.910156 Z M 17.492188 332.910156 "/>
<path style=" stroke:none;fill-rule:nonzero;fill:rgb(96.078431%,90.196078%,77.254902%);fill-opacity:1;" d="M 32.40625 382.882812 L 32.40625 393.6875 C 32.40625 397.070312 35.164062 399.835938 38.5625 399.835938 L 66 399.835938 L 63.804688 398.304688 C 53.894531 391.402344 43.699219 386.328125 33.503906 383.21875 L 32.417969 382.882812 Z M 32.40625 382.882812 "/>
<path style=" stroke:none;fill-rule:nonzero;fill:rgb(96.078431%,90.196078%,77.254902%);fill-opacity:1;" d="M 85.164062 382.027344 L 84.671875 379.347656 L 83.566406 381.832031 C 81.089844 387.421875 79.015625 393.449219 77.734375 398.792969 L 77.484375 399.835938 L 111.445312 399.835938 C 114.835938 399.835938 117.601562 397.082031 117.601562 393.6875 L 117.601562 381.777344 L 116.613281 381.949219 C 105.085938 384.019531 95.074219 387.964844 86.855469 393.667969 L 85.835938 394.359375 L 85.976562 393.15625 C 86.3125 390.566406 86.03125 386.707031 85.164062 382.015625 Z M 85.164062 382.027344 "/>
<path style=" stroke:none;fill-rule:nonzero;fill:rgb(96.078431%,90.196078%,77.254902%);fill-opacity:1;" d="M 118.222656 339.980469 C 119.730469 335.75 123.757812 332.910156 128.265625 332.910156 L 131.445312 332.910156 L 131.378906 332.011719 C 130.097656 313.628906 115.160156 299.765625 96.636719 299.765625 L 53.320312 299.765625 C 34.871094 299.765625 19.964844 313.628906 18.640625 332.011719 L 18.578125 332.910156 L 21.734375 332.910156 C 27.621094 332.910156 32.398438 337.679688 32.398438 343.554688 L 32.398438 367.242188 L 33.949219 364.703125 C 39.542969 355.632812 46.140625 342.113281 47.921875 331.40625 L 48.171875 330.007812 L 48.953125 331.1875 C 56.640625 342.667969 70.699219 349.757812 81.132812 353.667969 L 81.449219 353.722656 C 97.734375 354.027344 114.585938 343.242188 116.289062 341.789062 L 118.136719 340.175781 L 118.210938 339.96875 Z M 118.222656 339.980469 "/>
<path style=" stroke:none;fill-rule:nonzero;fill:rgb(96.078431%,90.196078%,77.254902%);fill-opacity:1;" d="M 138.078125 334.015625 L 128.253906 334.015625 C 122.988281 334.015625 118.699219 338.296875 118.699219 343.554688 L 118.699219 357.417969 L 118.730469 357.660156 C 121.25 366.015625 125.929688 375.390625 129.609375 379.46875 L 130.402344 380.335938 L 129.242188 380.421875 C 125.667969 380.671875 122.367188 381.027344 119.414062 381.460938 L 118.699219 381.570312 L 118.699219 394.988281 C 118.699219 398.273438 116.027344 400.929688 112.75 400.929688 L 77.238281 400.929688 L 77.105469 401.613281 C 76.757812 403.488281 76.53125 405.320312 76.453125 406.945312 L 76.410156 408.117188 L 75.519531 407.347656 C 73.046875 405.222656 70.472656 403.171875 67.671875 401.101562 L 67.445312 400.941406 L 37.230469 400.941406 C 33.9375 400.941406 31.277344 398.273438 31.277344 395 L 31.277344 382.601562 L 30.660156 382.4375 C 27.640625 381.613281 24.9375 381.015625 22.398438 380.605469 L 21.160156 380.410156 L 22.117188 379.640625 C 24.632812 377.625 27.75 373.972656 31.128906 369.082031 L 31.277344 368.867188 L 31.277344 343.554688 C 31.277344 338.296875 26.992188 334.015625 21.726562 334.015625 L 11.898438 334.015625 C 6.632812 334.015625 2.34375 338.296875 2.34375 343.554688 L 2.34375 420.648438 C 2.34375 425.902344 6.613281 430.1875 11.867188 430.1875 L 138.089844 430.1875 C 143.332031 430.1875 147.613281 425.902344 147.613281 420.648438 L 147.613281 343.554688 C 147.613281 338.296875 143.324219 334.015625 138.058594 334.015625 Z M 138.078125 334.015625 "/>
<path style=" stroke:none;fill-rule:nonzero;fill:rgb(64.313725%,65.490196%,72.54902%);fill-opacity:1;" d="M 32.441406 75.339844 C 33.851562 80.078125 34.503906 84.371094 34.320312 87.785156 L 34.230469 89.378906 L 35.601562 88.542969 C 38.660156 86.667969 49.617188 80.425781 61.886719 78.617188 L 65.566406 78.074219 L 62.003906 76.980469 C 56.21875 75.199219 52.039062 74.464844 51.007812 74.386719 L 49.183594 74.28125 L 50.757812 73.324219 C 56.53125 69.835938 61.386719 61.695312 64.425781 55.484375 L 64.554688 55.222656 L 64.492188 54.929688 C 63.394531 50.160156 62.796875 45.847656 62.765625 42.445312 L 62.742188 40.9375 L 61.472656 41.738281 C 53.417969 46.832031 43.871094 50.347656 33.046875 52.210938 C 32.246094 52.394531 31.398438 52.515625 30.574219 52.632812 L 30.324219 52.664062 C 27.816406 53.042969 25.566406 53.316406 23.449219 53.5 L 21.964844 53.628906 L 22.84375 54.832031 C 25.132812 57.964844 27.632812 62.582031 29.683594 67.527344 C 30.824219 70.214844 31.746094 72.835938 32.441406 75.332031 Z M 32.441406 75.339844 "/>
<path style=" stroke:none;fill-rule:nonzero;fill:rgb(64.313725%,65.490196%,72.54902%);fill-opacity:1;" d="M 64.261719 58.292969 C 64.164062 58.464844 64.066406 58.636719 63.992188 58.8125 L 63.957031 58.898438 C 60.710938 64.804688 57.269531 69.464844 53.980469 72.359375 L 52.722656 73.464844 L 54.359375 73.8125 C 57.011719 74.367188 62.425781 75.667969 68.972656 78.105469 C 71.644531 79.101562 74.261719 80.207031 76.769531 81.378906 L 77.246094 81.640625 C 87.246094 86.375 94.921875 92.101562 100.089844 98.65625 L 101.164062 100.023438 L 101.566406 98.332031 C 103.976562 88.304688 110.359375 74.484375 117.460938 63.949219 C 118.394531 62.550781 119.328125 61.25 120.21875 60.027344 C 121.933594 57.761719 123.5625 55.863281 125.050781 54.410156 L 126.179688 53.304688 L 124.636719 52.980469 C 123.03125 52.644531 121.402344 52.285156 119.773438 51.851562 C 118.871094 51.613281 117.9375 51.34375 117.003906 51.082031 C 105.378906 47.65625 93.726562 41.683594 82.394531 33.316406 L 81.222656 32.4375 C 80.386719 31.808594 79.527344 31.171875 78.703125 30.5625 C 78.050781 30.011719 77.386719 29.46875 76.738281 28.9375 L 74.675781 27.246094 L 74.46875 28.730469 C 74.371094 29.445312 74.238281 30.214844 74.109375 31.039062 C 73.945312 31.898438 73.742188 32.828125 73.511719 33.792969 C 72.003906 40.417969 69.234375 48.144531 65.914062 55.007812 L 64.492188 57.890625 C 64.4375 58.019531 64.359375 58.148438 64.296875 58.28125 Z M 64.261719 58.292969 "/>
<path style=" stroke:none;fill-rule:nonzero;fill:rgb(64.313725%,65.490196%,72.54902%);fill-opacity:1;" d="M 127.15625 378.144531 C 124.867188 375.011719 122.367188 370.394531 120.316406 365.453125 C 119.175781 362.761719 118.253906 360.140625 117.558594 357.648438 C 116.148438 352.910156 115.496094 348.617188 115.679688 345.203125 L 115.769531 343.609375 L 114.398438 344.445312 C 111.339844 346.320312 100.382812 352.5625 88.113281 354.375 L 84.433594 354.914062 L 87.996094 356.011719 C 93.78125 357.789062 97.960938 358.523438 98.992188 358.601562 L 100.816406 358.710938 L 99.242188 359.664062 C 93.46875 363.152344 88.613281 371.292969 85.574219 377.503906 L 85.445312 377.765625 L 85.507812 378.058594 C 86.605469 382.828125 87.203125 387.140625 87.234375 390.546875 L 87.257812 392.050781 L 88.527344 391.25 C 96.582031 386.15625 106.128906 382.644531 116.953125 380.777344 C 117.753906 380.59375 118.601562 380.476562 119.425781 380.355469 L 119.675781 380.324219 C 122.183594 379.945312 124.433594 379.671875 126.550781 379.488281 L 128.035156 379.359375 L 127.15625 378.15625 Z M 127.15625 378.144531 "/>
<path style=" stroke:none;fill-rule:nonzero;fill:rgb(64.313725%,65.490196%,72.54902%);fill-opacity:1;" d="M 85.738281 374.699219 C 85.835938 374.523438 85.933594 374.351562 86.007812 374.175781 L 86.042969 374.089844 C 89.289062 368.183594 92.730469 363.523438 96.019531 360.628906 L 97.277344 359.523438 L 95.640625 359.175781 C 92.988281 358.621094 87.574219 357.320312 81.027344 354.882812 C 78.355469 353.886719 75.738281 352.78125 73.230469 351.609375 L 72.753906 351.347656 C 62.753906 346.613281 55.078125 340.890625 49.910156 334.332031 L 48.835938 332.964844 L 48.433594 334.65625 C 46.023438 344.683594 39.640625 358.503906 32.539062 369.039062 C 31.605469 370.4375 30.671875 371.738281 29.78125 372.964844 C 28.066406 375.230469 26.4375 377.125 24.949219 378.578125 L 23.820312 379.683594 L 25.363281 380.007812 C 26.96875 380.34375 28.597656 380.703125 30.226562 381.136719 C 31.128906 381.375 32.0625 381.644531 32.996094 381.90625 C 44.621094 385.332031 56.273438 391.304688 67.605469 399.671875 L 68.777344 400.550781 C 69.613281 401.179688 70.472656 401.820312 71.296875 402.425781 C 71.949219 402.976562 72.613281 403.519531 73.261719 404.050781 L 75.324219 405.742188 L 75.53125 404.257812 C 75.628906 403.542969 75.761719 402.773438 75.890625 401.949219 C 76.054688 401.09375 76.257812 400.160156 76.488281 399.195312 C 77.996094 392.574219 80.765625 384.84375 84.085938 377.980469 L 85.507812 375.097656 C 85.5625 374.96875 85.640625 374.839844 85.703125 374.707031 Z M 85.738281 374.699219 "/>
<path style=" stroke:none;fill-rule:nonzero;fill:rgb(0%,0%,0%);fill-opacity:1;" d="M 138.113281 0.441406 L 11.886719 0.441406 C 5.332031 0.441406 0 5.785156 0 12.34375 L 0 89.445312 C 0 95.382812 4.332031 100.371094 10.140625 101.195312 L 10.140625 101.257812 L 10.171875 101.257812 C 11.097656 123.597656 29.585938 141.703125 51.550781 141.703125 L 99.003906 141.703125 C 120.261719 141.703125 138.882812 123.210938 139.835938 101.238281 L 139.890625 101.183594 C 145.691406 100.316406 150.011719 95.328125 150.011719 89.433594 L 150.011719 12.34375 C 150.011719 5.773438 144.679688 0.441406 138.121094 0.441406 Z M 99.003906 138.082031 L 51.550781 138.082031 C 31.648438 138.082031 14.808594 121.636719 13.808594 101.347656 L 16.273438 101.347656 C 17.730469 120.902344 33.601562 135.597656 53.363281 135.597656 L 96.679688 135.597656 C 116.105469 135.597656 132.292969 120.585938 133.703125 101.347656 L 136.199219 101.347656 C 135.203125 121.300781 118.265625 138.082031 99.003906 138.082031 Z M 116.648438 52.308594 C 117.59375 52.578125 118.535156 52.851562 119.449219 53.078125 C 120.945312 53.476562 122.414062 53.804688 123.628906 54.0625 C 122.25 55.472656 120.761719 57.230469 119.21875 59.277344 C 118.382812 60.40625 117.40625 61.769531 116.417969 63.253906 C 109.4375 73.628906 103.128906 87.144531 100.558594 97.214844 C 95.335938 90.832031 87.757812 85.25 78.039062 80.609375 L 77.800781 80.457031 C 75.152344 79.199219 72.339844 78.007812 69.429688 76.925781 C 63.40625 74.667969 58.324219 73.390625 55.4375 72.75 C 58.683594 69.714844 62.027344 65.121094 65.140625 59.386719 L 65.195312 59.265625 L 65.195312 59.246094 C 65.25 59.125 65.316406 59.015625 65.378906 58.898438 C 65.46875 58.734375 65.566406 58.574219 65.621094 58.433594 C 66.097656 57.488281 66.5625 56.546875 67.03125 55.613281 L 67.074219 55.496094 C 70.417969 48.578125 73.207031 40.785156 74.730469 34.109375 C 74.96875 33.132812 75.164062 32.179688 75.335938 31.289062 L 75.414062 30.835938 C 75.476562 30.433594 75.542969 30.042969 75.597656 29.652344 L 75.878906 29.878906 C 76.542969 30.421875 77.214844 30.964844 77.898438 31.550781 C 78.757812 32.179688 79.59375 32.808594 80.40625 33.414062 L 81.632812 34.335938 C 93.078125 42.78125 104.855469 48.828125 116.636719 52.296875 Z M 88.050781 34.421875 L 111.445312 34.421875 C 114.148438 34.421875 116.34375 36.613281 116.34375 39.3125 L 116.34375 48.417969 C 106.84375 45.457031 97.332031 40.753906 88.050781 34.433594 Z M 65.847656 49.382812 C 65.195312 45.445312 65 42.226562 65.28125 40.003906 L 65.761719 36.027344 L 62.4375 38.292969 C 54.492188 43.808594 44.816406 47.65625 33.667969 49.71875 L 33.667969 39.3125 C 33.667969 36.613281 35.859375 34.421875 38.5625 34.421875 L 70.917969 34.421875 C 69.746094 39.160156 67.964844 44.40625 65.835938 49.382812 Z M 61.539062 43.222656 C 61.644531 46.5625 62.230469 50.636719 63.253906 55.082031 C 59.074219 63.582031 54.40625 69.683594 50.125 72.273438 L 45.109375 75.320312 L 50.960938 75.667969 C 51.90625 75.722656 55.371094 76.371094 59.917969 77.683594 C 48.921875 79.6875 39.257812 84.933594 35.632812 87.082031 C 35.699219 83.675781 35.023438 79.515625 33.667969 75.003906 C 32.972656 72.5 32.027344 69.824219 30.855469 67.058594 C 28.902344 62.34375 26.535156 57.902344 24.308594 54.714844 C 26.242188 54.53125 28.324219 54.269531 30.53125 53.933594 C 31.550781 53.792969 32.460938 53.664062 33.332031 53.46875 C 43.992188 51.636719 53.46875 48.1875 61.546875 43.222656 Z M 32.941406 93.550781 L 34.535156 92.152344 C 35.9375 90.960938 52.484375 80.535156 68.128906 80.535156 C 68.246094 80.535156 68.367188 80.535156 68.484375 80.535156 C 78.746094 84.394531 92.511719 91.332031 99.992188 102.503906 L 102.535156 106.300781 L 103.324219 101.8125 C 104.996094 91.765625 111 79.167969 116.34375 70.238281 L 116.34375 89.453125 C 116.34375 96.023438 121.695312 101.355469 128.265625 101.355469 L 130.066406 101.355469 C 128.589844 118.839844 114.3125 131.976562 96.679688 131.976562 L 53.363281 131.976562 C 35.664062 131.976562 21.367188 118.839844 19.910156 101.355469 L 21.746094 101.355469 C 26.742188 101.355469 31.226562 98.222656 32.941406 93.550781 Z M 146.375 89.453125 C 146.375 94.019531 142.660156 97.738281 138.078125 97.738281 L 128.253906 97.738281 C 123.683594 97.738281 119.957031 94.027344 119.957031 89.453125 L 119.957031 64.535156 C 123.238281 59.808594 126.246094 56.285156 128.644531 54.355469 L 131.792969 51.820312 L 127.777344 51.167969 C 125.398438 50.78125 122.835938 50.214844 119.957031 49.445312 L 119.957031 38.011719 C 119.957031 34.042969 116.722656 30.8125 112.75 30.8125 L 82.957031 30.8125 C 80.242188 28.785156 77.734375 26.792969 75.292969 24.699219 L 72.40625 22.207031 L 72.273438 26 C 72.210938 27.421875 72.015625 29.078125 71.710938 30.8125 L 37.25 30.8125 C 33.277344 30.8125 30.03125 34.042969 30.03125 38.011719 L 30.03125 50.335938 C 27.21875 50.746094 24.082031 51.082031 20.671875 51.320312 L 16.914062 51.582031 L 19.445312 54.367188 C 23.015625 58.324219 27.554688 67.449219 30.03125 75.632812 L 30.03125 89.445312 C 30.03125 94.007812 26.316406 97.726562 21.734375 97.726562 L 11.910156 97.726562 C 7.339844 97.726562 3.617188 94.019531 3.617188 89.445312 L 3.617188 12.34375 C 3.617188 7.777344 7.316406 4.0625 11.878906 4.0625 L 138.101562 4.0625 C 142.648438 4.0625 146.363281 7.769531 146.363281 12.34375 L 146.363281 89.445312 Z M 146.375 89.453125 "/>
<path style=" stroke:none;fill-rule:nonzero;fill:rgb(0%,0%,0%);fill-opacity:1;" d="M 139.871094 331.796875 L 139.871094 331.730469 L 139.835938 331.730469 C 138.914062 309.402344 120.4375 291.289062 98.460938 291.289062 L 51.007812 291.289062 C 29.738281 291.289062 11.128906 309.78125 10.171875 331.742188 L 10.117188 331.796875 C 4.320312 332.664062 0 337.660156 0 343.546875 L 0 420.648438 C 0 427.214844 5.332031 432.546875 11.886719 432.546875 L 138.113281 432.546875 C 144.667969 432.546875 150 427.203125 150 420.648438 L 150 343.546875 C 150 337.605469 145.667969 332.617188 139.859375 331.785156 Z M 51.007812 294.917969 L 98.460938 294.917969 C 118.363281 294.917969 135.203125 311.363281 136.191406 331.652344 L 133.726562 331.652344 C 132.269531 312.097656 116.398438 297.402344 96.636719 297.402344 L 53.320312 297.402344 C 33.894531 297.402344 17.707031 312.414062 16.296875 331.652344 L 13.800781 331.652344 C 14.796875 311.699219 31.734375 294.917969 50.996094 294.917969 Z M 33.363281 380.691406 C 32.417969 380.421875 31.472656 380.148438 30.5625 379.921875 C 29.304688 379.585938 27.957031 379.273438 26.382812 378.9375 C 27.761719 377.527344 29.238281 375.78125 30.789062 373.734375 C 31.679688 372.519531 32.625 371.207031 33.589844 369.753906 C 40.574219 359.382812 46.878906 345.863281 49.453125 335.792969 C 54.6875 342.179688 62.253906 347.761719 71.972656 352.402344 L 72.210938 352.554688 C 74.902344 353.832031 77.714844 355.011719 80.582031 356.085938 C 86.585938 358.332031 91.675781 359.621094 94.574219 360.257812 C 91.339844 363.285156 87.996094 367.878906 84.867188 373.625 L 84.816406 373.742188 L 84.816406 373.765625 C 84.761719 373.886719 84.695312 373.992188 84.628906 374.113281 C 84.542969 374.273438 84.457031 374.4375 84.390625 374.578125 L 82.980469 377.398438 L 82.9375 377.527344 C 79.59375 384.441406 76.800781 392.238281 75.28125 398.914062 C 75.054688 399.898438 74.847656 400.84375 74.675781 401.730469 C 74.585938 402.285156 74.488281 402.828125 74.402344 403.359375 L 74.097656 403.121094 C 73.4375 402.589844 72.773438 402.046875 72.101562 401.472656 C 71.234375 400.832031 70.386719 400.191406 69.550781 399.574219 L 68.367188 398.6875 C 56.914062 390.242188 45.132812 384.195312 33.351562 380.726562 Z M 61.960938 398.578125 L 38.554688 398.578125 C 35.851562 398.578125 33.65625 396.386719 33.65625 393.6875 L 33.65625 384.59375 C 43.167969 387.554688 52.679688 392.257812 61.960938 398.578125 Z M 84.152344 383.628906 C 84.804688 387.574219 85 390.792969 84.71875 393.007812 L 84.238281 396.984375 L 87.5625 394.707031 C 95.507812 389.191406 105.183594 385.34375 116.332031 383.28125 L 116.332031 393.6875 C 116.332031 396.386719 114.140625 398.578125 111.4375 398.578125 L 79.082031 398.578125 C 80.253906 393.839844 82.035156 388.605469 84.152344 383.628906 Z M 88.460938 389.785156 C 88.355469 386.457031 87.769531 382.382812 86.746094 377.929688 C 90.925781 369.429688 95.585938 363.328125 99.875 360.738281 L 104.890625 357.691406 L 99.046875 357.34375 C 98.082031 357.277344 94.617188 356.628906 90.089844 355.328125 C 101.089844 353.324219 110.753906 348.074219 114.378906 345.929688 C 114.3125 349.34375 114.984375 353.496094 116.34375 358.003906 C 117.050781 360.53125 117.992188 363.195312 119.15625 365.949219 C 121.109375 370.65625 123.476562 375.109375 125.703125 378.296875 C 123.769531 378.480469 121.683594 378.742188 119.480469 379.078125 L 119.339844 379.097656 C 118.449219 379.21875 117.539062 379.359375 116.679688 379.542969 C 106.019531 381.375 96.53125 384.820312 88.472656 389.785156 Z M 117.058594 339.449219 L 115.464844 340.847656 C 114.0625 342.039062 97.515625 352.464844 81.871094 352.464844 C 81.753906 352.464844 81.621094 352.464844 81.503906 352.464844 C 71.253906 348.617188 57.488281 341.667969 49.996094 330.496094 L 47.464844 326.699219 L 46.675781 331.1875 C 45.003906 341.234375 39 353.832031 33.65625 362.761719 L 33.65625 343.546875 C 33.65625 336.976562 28.304688 331.644531 21.734375 331.644531 L 19.933594 331.644531 C 21.421875 314.148438 35.699219 301.023438 53.320312 301.023438 L 96.636719 301.023438 C 114.335938 301.023438 128.632812 314.160156 130.089844 331.644531 L 128.253906 331.644531 C 123.257812 331.644531 118.773438 334.777344 117.070312 339.4375 Z M 146.351562 420.648438 C 146.351562 425.210938 142.648438 428.929688 138.089844 428.929688 L 11.886719 428.929688 C 7.339844 428.929688 3.625 425.210938 3.625 420.648438 L 3.625 343.546875 C 3.625 338.980469 7.339844 335.261719 11.921875 335.261719 L 21.746094 335.261719 C 26.316406 335.261719 30.042969 338.972656 30.042969 343.546875 L 30.042969 368.464844 C 26.761719 373.191406 23.765625 376.714844 21.355469 378.644531 L 18.195312 381.179688 L 22.222656 381.832031 C 24.613281 382.21875 27.238281 382.804688 30.042969 383.554688 L 30.042969 394.988281 C 30.042969 398.957031 33.277344 402.1875 37.261719 402.1875 L 67.050781 402.1875 C 69.789062 404.226562 72.296875 406.21875 74.71875 408.300781 L 77.605469 410.792969 L 77.734375 407 C 77.800781 405.546875 77.996094 403.890625 78.3125 402.1875 L 112.769531 402.1875 C 116.746094 402.1875 119.980469 398.957031 119.980469 394.988281 L 119.980469 382.652344 C 122.804688 382.242188 125.953125 381.917969 129.339844 381.679688 L 133.09375 381.417969 L 130.566406 378.632812 C 127.003906 374.6875 122.457031 365.558594 119.980469 357.367188 L 119.980469 343.554688 C 119.980469 338.992188 123.695312 335.273438 128.273438 335.273438 L 138.101562 335.273438 C 142.671875 335.273438 146.394531 338.980469 146.394531 343.554688 L 146.394531 420.65625 Z M 146.351562 420.648438 "/>
</g>
</svg>
