<?xml version="1.0" encoding="UTF-8"?>
<svg xmlns="http://www.w3.org/2000/svg" xmlns:xlink="http://www.w3.org/1999/xlink" width="150px" height="91px" viewBox="0 0 150 91" version="1.1">
<g id="surface1">
<path style=" stroke:none;fill-rule:nonzero;fill:rgb(100%,84.313725%,86.666667%);fill-opacity:1;" d="M 114.742188 67.40625 L 114.652344 67.128906 L 114.390625 67.25 C 111.316406 68.605469 108.039062 69.289062 104.648438 69.289062 L 96.769531 69.289062 L 96.769531 79.703125 L 114.980469 79.703125 L 114.980469 68.957031 C 114.980469 68.4375 114.902344 67.933594 114.742188 67.40625 Z M 114.742188 67.40625 "/>
<path style=" stroke:none;fill-rule:nonzero;fill:rgb(100%,84.313725%,86.666667%);fill-opacity:1;" d="M 96.769531 80.421875 L 114.980469 80.421875 L 114.980469 82.777344 L 96.769531 82.777344 Z M 96.769531 80.421875 "/>
<path style=" stroke:none;fill-rule:nonzero;fill:rgb(100%,84.313725%,86.666667%);fill-opacity:1;" d="M 66.328125 80.421875 L 84.535156 80.421875 L 84.535156 82.777344 L 66.328125 82.777344 Z M 66.328125 80.421875 "/>
<path style=" stroke:none;fill-rule:nonzero;fill:rgb(100%,84.313725%,86.666667%);fill-opacity:1;" d="M 66.328125 69.289062 L 84.535156 69.289062 L 84.535156 79.703125 L 66.328125 79.703125 Z M 66.328125 69.289062 "/>
<path style=" stroke:none;fill-rule:nonzero;fill:rgb(100%,84.313725%,86.666667%);fill-opacity:1;" d="M 46.691406 69.289062 C 43.015625 69.289062 39.488281 68.484375 36.207031 66.898438 L 35.957031 66.777344 L 35.855469 67.035156 C 35.609375 67.648438 35.488281 68.296875 35.488281 68.957031 L 35.488281 79.703125 L 53.707031 79.703125 L 53.707031 69.289062 Z M 46.691406 69.289062 "/>
<path style=" stroke:none;fill-rule:nonzero;fill:rgb(100%,84.313725%,86.666667%);fill-opacity:1;" d="M 35.488281 80.421875 L 53.707031 80.421875 L 53.707031 82.777344 L 35.488281 82.777344 Z M 35.488281 80.421875 "/>
<path style=" stroke:none;fill-rule:nonzero;fill:rgb(100%,84.313725%,86.666667%);fill-opacity:1;" d="M 8.195312 35.839844 L 10.546875 35.839844 L 10.546875 54.09375 L 8.195312 54.09375 Z M 8.195312 35.839844 "/>
<path style=" stroke:none;fill-rule:nonzero;fill:rgb(100%,84.313725%,86.666667%);fill-opacity:1;" d="M 24.023438 53.675781 L 23.9375 53.441406 C 21.921875 47.988281 21.921875 41.921875 23.9375 36.5 L 24.027344 36.261719 L 23.789062 36.171875 C 23.238281 35.953125 22.632812 35.84375 21.988281 35.84375 L 11.257812 35.84375 L 11.257812 54.097656 L 21.988281 54.097656 C 22.632812 54.097656 23.238281 53.988281 23.789062 53.769531 Z M 24.023438 53.675781 "/>
<path style=" stroke:none;fill-rule:nonzero;fill:rgb(100%,84.313725%,86.666667%);fill-opacity:1;" d="M 46.691406 20.636719 L 53.707031 20.636719 L 53.707031 11.292969 L 35.488281 11.292969 L 35.488281 22.046875 C 35.488281 22.347656 35.515625 22.660156 35.574219 22.972656 L 35.636719 23.308594 L 35.941406 23.15625 C 39.253906 21.507812 42.972656 20.636719 46.691406 20.636719 Z M 46.691406 20.636719 "/>
<path style=" stroke:none;fill-rule:nonzero;fill:rgb(100%,84.313725%,86.666667%);fill-opacity:1;" d="M 35.488281 8.222656 L 53.707031 8.222656 L 53.707031 10.574219 L 35.488281 10.574219 Z M 35.488281 8.222656 "/>
<path style=" stroke:none;fill-rule:nonzero;fill:rgb(100%,84.313725%,86.666667%);fill-opacity:1;" d="M 66.328125 11.296875 L 84.535156 11.296875 L 84.535156 20.636719 L 66.328125 20.636719 Z M 66.328125 11.296875 "/>
<path style=" stroke:none;fill-rule:nonzero;fill:rgb(100%,84.313725%,86.666667%);fill-opacity:1;" d="M 66.328125 8.222656 L 84.535156 8.222656 L 84.535156 10.574219 L 66.328125 10.574219 Z M 66.328125 8.222656 "/>
<path style=" stroke:none;fill-rule:nonzero;fill:rgb(100%,84.313725%,86.666667%);fill-opacity:1;" d="M 104.652344 20.636719 C 108.109375 20.636719 111.457031 21.351562 114.597656 22.769531 L 114.933594 22.921875 L 114.957031 22.550781 C 114.96875 22.394531 114.980469 22.21875 114.980469 22.050781 L 114.980469 11.296875 L 96.773438 11.296875 L 96.773438 20.636719 Z M 104.652344 20.636719 "/>
<path style=" stroke:none;fill-rule:nonzero;fill:rgb(100%,84.313725%,86.666667%);fill-opacity:1;" d="M 96.769531 8.222656 L 114.980469 8.222656 L 114.980469 10.574219 L 96.769531 10.574219 Z M 96.769531 8.222656 "/>
<path style=" stroke:none;fill-rule:nonzero;fill:rgb(100%,84.313725%,86.666667%);fill-opacity:1;" d="M 128.019531 35.839844 C 127.847656 35.839844 127.6875 35.847656 127.527344 35.859375 L 127.175781 35.882812 L 127.300781 36.210938 C 128.382812 39.011719 128.933594 41.953125 128.933594 44.964844 C 128.933594 47.972656 128.382812 50.925781 127.300781 53.726562 L 127.175781 54.054688 L 127.527344 54.078125 C 127.6875 54.089844 127.847656 54.097656 128.019531 54.097656 L 138.738281 54.097656 L 138.738281 35.84375 L 128.019531 35.84375 Z M 128.019531 35.839844 "/>
<path style=" stroke:none;fill-rule:nonzero;fill:rgb(100%,84.313725%,86.666667%);fill-opacity:1;" d="M 139.460938 35.839844 L 141.808594 35.839844 L 141.808594 54.09375 L 139.460938 54.09375 Z M 139.460938 35.839844 "/>
<path style=" stroke:none;fill-rule:nonzero;fill:rgb(100%,84.313725%,86.666667%);fill-opacity:1;" d="M 114.082031 66.59375 C 114.492188 66.414062 114.867188 66.238281 115.21875 66.054688 C 119.996094 63.652344 123.855469 59.644531 126.078125 54.773438 C 126.277344 54.351562 126.433594 53.972656 126.558594 53.625 C 127.65625 50.875 128.214844 47.960938 128.214844 44.964844 C 128.214844 41.964844 127.664062 39.070312 126.570312 36.316406 C 126.429688 35.941406 126.261719 35.554688 126.082031 35.164062 C 123.925781 30.453125 120.21875 26.519531 115.648438 24.097656 C 115.292969 23.902344 114.914062 23.710938 114.523438 23.53125 C 111.402344 22.09375 108.078125 21.363281 104.652344 21.363281 L 46.691406 21.363281 C 42.972656 21.363281 39.40625 22.214844 36.09375 23.894531 C 35.71875 24.082031 35.355469 24.28125 34.988281 24.492188 C 30.5625 27.046875 27.023438 31.03125 25.027344 35.71875 C 24.84375 36.140625 24.691406 36.53125 24.570312 36.898438 C 23.625 39.476562 23.144531 42.191406 23.144531 44.964844 C 23.144531 47.738281 23.625 50.472656 24.566406 53.035156 C 24.714844 53.484375 24.890625 53.90625 25.027344 54.222656 C 27.101562 59.089844 30.808594 63.171875 35.457031 65.707031 C 35.796875 65.902344 36.164062 66.089844 36.582031 66.285156 C 39.75 67.808594 43.152344 68.582031 46.695312 68.582031 L 104.65625 68.582031 C 107.933594 68.582031 111.105469 67.914062 114.085938 66.601562 Z M 114.082031 66.59375 "/>
<path style=" stroke:none;fill-rule:nonzero;fill:rgb(0%,0%,0%);fill-opacity:1;" d="M 134.335938 32.054688 C 134.335938 32.398438 134.613281 32.675781 134.957031 32.675781 C 142.570312 32.675781 148.765625 38.1875 148.765625 44.96875 C 148.765625 51.746094 142.570312 57.257812 134.957031 57.257812 C 134.613281 57.257812 134.335938 57.535156 134.335938 57.878906 C 134.335938 58.222656 134.613281 58.5 134.957031 58.5 C 143.253906 58.5 150 52.429688 150 44.96875 C 150 37.503906 143.253906 31.433594 134.957031 31.433594 C 134.613281 31.433594 134.335938 31.710938 134.335938 32.054688 Z M 134.335938 32.054688 "/>
<path style=" stroke:none;fill-rule:nonzero;fill:rgb(0%,0%,0%);fill-opacity:1;" d="M 15.664062 57.875 C 15.664062 57.53125 15.386719 57.257812 15.042969 57.257812 C 7.429688 57.257812 1.234375 51.742188 1.234375 44.964844 C 1.234375 38.183594 7.429688 32.671875 15.042969 32.671875 C 15.386719 32.671875 15.664062 32.394531 15.664062 32.050781 C 15.664062 31.707031 15.386719 31.433594 15.042969 31.433594 C 6.746094 31.433594 0 37.503906 0 44.964844 C 0 52.425781 6.746094 58.496094 15.042969 58.496094 C 15.386719 58.496094 15.664062 58.21875 15.664062 57.875 Z M 15.664062 57.875 "/>
<path style=" stroke:none;fill-rule:nonzero;fill:rgb(0%,0%,0%);fill-opacity:1;" d="M 92.375 15.089844 C 92.375 15.433594 92.652344 15.710938 92.996094 15.710938 C 93.335938 15.710938 93.613281 15.433594 93.613281 15.089844 C 93.613281 7.457031 99.117188 1.253906 105.878906 1.253906 C 112.640625 1.253906 118.144531 7.460938 118.144531 15.09375 C 118.144531 15.4375 118.421875 15.710938 118.765625 15.710938 C 119.105469 15.710938 119.382812 15.4375 119.382812 15.09375 C 119.382812 6.777344 113.324219 0.015625 105.878906 0.015625 C 98.433594 0.015625 92.375 6.777344 92.375 15.09375 Z M 92.375 15.089844 "/>
<path style=" stroke:none;fill-rule:nonzero;fill:rgb(0%,0%,0%);fill-opacity:1;" d="M 61.933594 15.089844 C 61.933594 15.433594 62.210938 15.710938 62.550781 15.710938 C 62.894531 15.710938 63.171875 15.433594 63.171875 15.089844 C 63.171875 7.457031 68.675781 1.253906 75.4375 1.253906 C 82.199219 1.253906 87.703125 7.460938 87.703125 15.09375 C 87.703125 15.4375 87.980469 15.710938 88.320312 15.710938 C 88.664062 15.710938 88.941406 15.4375 88.941406 15.09375 C 88.941406 6.777344 82.882812 0.015625 75.4375 0.015625 C 67.992188 0.015625 61.933594 6.777344 61.933594 15.09375 Z M 61.933594 15.089844 "/>
<path style=" stroke:none;fill-rule:nonzero;fill:rgb(0%,0%,0%);fill-opacity:1;" d="M 118.144531 75.910156 C 118.144531 83.542969 112.636719 89.75 105.875 89.75 C 99.113281 89.75 93.609375 83.542969 93.609375 75.910156 C 93.609375 75.566406 93.335938 75.289062 92.992188 75.289062 C 92.648438 75.289062 92.375 75.566406 92.375 75.910156 C 92.375 84.226562 98.429688 90.988281 105.875 90.988281 C 113.324219 90.988281 119.378906 84.226562 119.378906 75.910156 C 119.378906 75.566406 119.101562 75.289062 118.761719 75.289062 C 118.417969 75.289062 118.144531 75.566406 118.144531 75.910156 Z M 118.144531 75.910156 "/>
<path style=" stroke:none;fill-rule:nonzero;fill:rgb(0%,0%,0%);fill-opacity:1;" d="M 88.9375 75.910156 C 88.9375 75.566406 88.660156 75.289062 88.320312 75.289062 C 87.976562 75.289062 87.699219 75.566406 87.699219 75.910156 C 87.699219 83.542969 82.195312 89.75 75.433594 89.75 C 68.671875 89.75 63.167969 83.542969 63.167969 75.910156 C 63.167969 75.566406 62.890625 75.289062 62.550781 75.289062 C 62.207031 75.289062 61.929688 75.566406 61.929688 75.910156 C 61.929688 84.226562 67.988281 90.988281 75.433594 90.988281 C 82.878906 90.988281 88.9375 84.226562 88.9375 75.910156 Z M 88.9375 75.910156 "/>
<path style=" stroke:none;fill-rule:nonzero;fill:rgb(0%,0%,0%);fill-opacity:1;" d="M 32.328125 15.089844 C 32.328125 7.457031 37.832031 1.253906 44.59375 1.253906 C 51.359375 1.253906 56.859375 7.460938 56.859375 15.09375 C 56.859375 15.4375 57.136719 15.710938 57.480469 15.710938 C 57.820312 15.710938 58.097656 15.4375 58.097656 15.09375 C 58.097656 6.777344 52.039062 0.015625 44.597656 0.015625 C 37.15625 0.015625 31.09375 6.777344 31.09375 15.09375 C 31.09375 15.4375 31.371094 15.710938 31.714844 15.710938 C 32.054688 15.710938 32.332031 15.4375 32.332031 15.09375 Z M 32.328125 15.089844 "/>
<path style=" stroke:none;fill-rule:nonzero;fill:rgb(0%,0%,0%);fill-opacity:1;" d="M 54.683594 83.757812 L 54.683594 69.546875 L 65.355469 69.546875 L 65.355469 83.757812 L 85.515625 83.757812 L 85.515625 69.546875 L 95.796875 69.546875 L 95.796875 83.757812 L 115.960938 83.757812 L 115.960938 68.957031 C 115.960938 68.253906 115.84375 67.574219 115.621094 66.945312 C 120.675781 64.40625 124.746094 60.175781 127.0625 54.984375 C 127.367188 55.046875 127.6875 55.070312 128.019531 55.070312 L 142.785156 55.070312 L 142.785156 34.863281 L 128.019531 34.863281 C 127.6875 34.863281 127.367188 34.882812 127.0625 34.945312 C 124.773438 29.847656 120.808594 25.65625 115.867188 23.109375 C 115.929688 22.769531 115.960938 22.417969 115.960938 22.054688 L 115.960938 7.238281 L 95.796875 7.238281 L 95.796875 20.375 L 85.515625 20.375 L 85.515625 7.238281 L 65.355469 7.238281 L 65.355469 20.375 L 54.683594 20.375 L 54.683594 7.238281 L 34.507812 7.238281 L 34.507812 22.050781 C 34.507812 22.566406 34.570312 23.0625 34.695312 23.539062 C 30.019531 26.167969 26.292969 30.300781 24.160156 35.269531 C 23.484375 35.003906 22.75 34.859375 21.988281 34.859375 L 7.214844 34.859375 L 7.214844 55.066406 L 21.984375 55.066406 C 22.746094 55.066406 23.476562 54.921875 24.160156 54.664062 C 26.332031 59.730469 30.171875 63.929688 34.980469 66.5625 C 34.671875 67.296875 34.507812 68.109375 34.507812 68.957031 L 34.507812 83.757812 Z M 84.28125 80.683594 L 84.28125 82.519531 L 66.585938 82.519531 L 66.585938 80.683594 Z M 114.722656 80.683594 L 114.722656 82.519531 L 97.03125 82.519531 L 97.03125 80.683594 Z M 66.585938 10.316406 L 66.585938 8.480469 L 84.28125 8.480469 L 84.28125 10.316406 Z M 84.28125 79.445312 L 66.585938 79.445312 L 66.585938 69.546875 L 84.28125 69.546875 Z M 114.722656 68.957031 L 114.722656 79.445312 L 97.03125 79.445312 L 97.03125 69.546875 L 104.652344 69.546875 C 108.152344 69.546875 111.480469 68.8125 114.496094 67.480469 C 114.640625 67.957031 114.722656 68.441406 114.722656 68.957031 Z M 141.550781 36.097656 L 141.550781 53.839844 L 139.71875 53.839844 L 139.71875 36.097656 Z M 138.480469 36.097656 L 138.480469 53.839844 L 128.019531 53.839844 C 127.855469 53.839844 127.699219 53.828125 127.542969 53.816406 C 128.605469 51.070312 129.191406 48.078125 129.191406 44.964844 C 129.191406 41.847656 128.605469 38.863281 127.542969 36.117188 C 127.699219 36.109375 127.851562 36.097656 128.019531 36.097656 Z M 97.03125 10.316406 L 97.03125 8.480469 L 114.722656 8.480469 L 114.722656 10.316406 Z M 97.03125 11.554688 L 114.722656 11.554688 L 114.722656 22.054688 C 114.722656 22.21875 114.714844 22.386719 114.703125 22.539062 C 111.632812 21.152344 108.234375 20.378906 104.652344 20.378906 L 97.03125 20.378906 Z M 66.585938 11.554688 L 84.28125 11.554688 L 84.28125 20.382812 L 66.585938 20.382812 Z M 35.742188 10.316406 L 35.742188 8.480469 L 53.445312 8.480469 L 53.445312 10.316406 Z M 35.742188 22.050781 L 35.742188 11.554688 L 53.445312 11.554688 L 53.445312 20.378906 L 46.6875 20.378906 C 42.796875 20.378906 39.097656 21.296875 35.824219 22.929688 C 35.773438 22.648438 35.738281 22.351562 35.738281 22.054688 Z M 8.453125 53.839844 L 8.453125 36.097656 L 10.285156 36.097656 L 10.285156 53.839844 Z M 11.507812 53.839844 L 11.507812 36.097656 L 21.984375 36.097656 C 22.589844 36.097656 23.167969 36.203125 23.691406 36.410156 C 22.703125 39.074219 22.160156 41.953125 22.160156 44.96875 C 22.160156 47.980469 22.707031 50.859375 23.691406 53.53125 C 23.167969 53.738281 22.589844 53.839844 21.984375 53.839844 Z M 36.6875 66.046875 C 36.304688 65.871094 35.9375 65.6875 35.574219 65.480469 C 30.984375 62.972656 27.328125 58.964844 25.257812 54.117188 C 25.09375 53.734375 24.9375 53.355469 24.800781 52.949219 C 23.886719 50.464844 23.390625 47.769531 23.390625 44.964844 C 23.390625 42.160156 23.886719 39.484375 24.800781 36.984375 C 24.9375 36.59375 25.089844 36.203125 25.257812 35.820312 C 27.253906 31.132812 30.746094 27.234375 35.113281 24.714844 C 35.472656 24.507812 35.835938 24.308594 36.207031 24.125 C 39.359375 22.527344 42.921875 21.617188 46.6875 21.617188 L 104.648438 21.617188 C 108.128906 21.617188 111.4375 22.394531 114.414062 23.765625 C 114.792969 23.941406 115.164062 24.125 115.527344 24.320312 C 120.058594 26.726562 123.703125 30.585938 125.84375 35.269531 C 126.019531 35.644531 126.183594 36.023438 126.328125 36.40625 C 127.378906 39.058594 127.957031 41.949219 127.957031 44.964844 C 127.957031 47.980469 127.378906 50.878906 126.320312 53.53125 C 126.183594 53.914062 126.019531 54.292969 125.84375 54.664062 C 123.640625 59.496094 119.832031 63.449219 115.101562 65.820312 C 114.730469 66.019531 114.359375 66.195312 113.980469 66.359375 C 111.128906 67.617188 107.96875 68.316406 104.652344 68.316406 L 46.691406 68.316406 C 43.121094 68.316406 39.71875 67.503906 36.691406 66.046875 Z M 35.742188 79.445312 L 35.742188 68.957031 C 35.742188 68.316406 35.867188 67.699219 36.09375 67.128906 C 39.296875 68.679688 42.902344 69.546875 46.691406 69.546875 L 53.449219 69.546875 L 53.449219 79.445312 Z M 35.742188 82.519531 L 35.742188 80.683594 L 53.445312 80.683594 L 53.445312 82.519531 Z M 35.742188 82.519531 "/>
<path style=" stroke:none;fill-rule:nonzero;fill:rgb(0%,0%,0%);fill-opacity:1;" d="M 58.097656 75.910156 C 58.097656 75.566406 57.820312 75.289062 57.480469 75.289062 C 57.136719 75.289062 56.859375 75.566406 56.859375 75.910156 C 56.859375 83.542969 51.359375 89.75 44.59375 89.75 C 37.832031 89.75 32.328125 83.542969 32.328125 75.910156 C 32.328125 75.566406 32.054688 75.289062 31.710938 75.289062 C 31.367188 75.289062 31.09375 75.566406 31.09375 75.910156 C 31.09375 84.226562 37.148438 90.988281 44.59375 90.988281 C 52.039062 90.988281 58.09375 84.226562 58.09375 75.910156 Z M 58.097656 75.910156 "/>
</g>
</svg>
